<svg width="18" height="12" viewBox="0 0 18 12" fill="none" xmlns="http://www.w3.org/2000/svg">
<path d="M10.0197 0.319767C10.2608 0.11502 10.5878 0 10.9287 0C11.2697 0 11.5966 0.11502 11.8378 0.319767L17.6236 5.23444C17.8646 5.43925 18 5.71699 18 6.00659C18 6.29619 17.8646 6.57394 17.6236 6.77874L11.8378 11.6934C11.5953 11.8924 11.2705 12.0024 10.9334 12C10.5963 11.9975 10.2738 11.8826 10.0354 11.6801C9.797 11.4776 9.66178 11.2037 9.65885 10.9173C9.65592 10.631 9.78552 10.3551 10.0197 10.1491L13.5002 7.09874H1.28573C0.944736 7.09874 0.617705 6.98368 0.376583 6.77886C0.135461 6.57404 0 6.29625 0 6.00659C0 5.71694 0.135461 5.43914 0.376583 5.23433C0.617705 5.02951 0.944736 4.91444 1.28573 4.91444H13.5002L10.0197 1.86407C9.77869 1.65926 9.64328 1.38152 9.64328 1.09192C9.64328 0.802318 9.77869 0.524575 10.0197 0.319767Z" fill="#F8F8F8" fill-opacity="0.9"/>
</svg>
