<svg width="110" height="110" viewBox="0 0 110 110" fill="none" xmlns="http://www.w3.org/2000/svg">
<path d="M35.2907 0C32.9011 3.81454 30.2006 7.78077 25.8143 11.5309C25.9189 11.633 26.0267 11.7342 26.1337 11.8361L31.487 11.7434L30.6853 14.1878C30.5699 14.5387 30.4427 14.8856 30.3038 15.2278C30.9633 15.6879 31.6358 16.1289 32.3206 16.5501L38.0153 20.0523L27.561 19.8712C27.1169 20.4364 26.6381 20.9906 26.1278 21.5332C28.1282 24.1643 31.139 26.7221 34.9192 29.0188L32.0996 28.9354L32.0962 30.2326C34.0352 31.6851 36.1406 33.0764 38.2705 34.4544C42.3872 31.8117 45.4969 28.8573 47.2517 25.8608L34.2146 26.087L39.9092 22.5848C41.9483 21.331 43.6656 20.0455 45.1561 18.7314C43.9973 17.4806 43.1103 16.227 42.5972 14.9184L41.6789 12.5777L48.4397 12.1612C43.2967 8.85406 38.1366 5.17591 35.2907 0ZM88.6199 3.02088C87.1339 5.98213 85.4648 9.64978 83.2466 13.2169C85.7305 17.413 88.7995 21.4406 93.8788 25.1839L98.5206 28.6039L86.5843 28.356C88.1655 31.1286 91.116 34.4919 94.4448 37.505C98.7995 41.4468 103.748 44.9463 106.699 46.6236L109.276 48.0899C109.278 47.1388 109.278 46.4034 109.28 44.8979C105.376 42.1706 102.513 39.0048 101.023 35.257L100.088 32.9044L110 32.3149C107.747 31.3193 105.511 30.4272 103.471 29.5598C101.539 28.7387 99.7815 27.9361 98.3053 26.9942C96.8289 26.0525 95.5544 24.9486 94.9279 23.3519L94.0345 21.076L102.235 20.35C96.7241 15.7292 91.5009 9.21137 88.6199 3.02088ZM15.7659 4.33291C12.9199 9.50882 7.75985 13.1872 2.61731 16.4946L9.3772 16.9108L8.45953 19.2511C7.37296 22.0212 4.63723 24.7622 0.916761 27.675C0.849703 30.236 0.827654 31.7095 0.829245 31.726C0.830382 31.736 0.872435 31.9773 0.895167 32.4404C0.903804 32.6099 0.904259 33.1662 0.910169 33.436L4.05348 33.6181L4.05257 33.7437L3.16468 35.9776C2.89645 36.6527 2.59685 37.3643 2.21905 38.0867L4.83885 36.4761C13.335 31.2513 16.3001 25.4729 20.1588 19.38L20.1058 20.8343L21.1228 20.406C20.834 19.7939 20.5831 19.1644 20.3715 18.5212L19.5695 16.0767L25.612 16.1818C21.0035 12.338 18.2229 8.25528 15.7659 4.33291ZM56.4628 10.3678C54.006 14.29 51.2254 18.3729 46.6169 22.2156L52.6593 22.1109L51.8576 24.5554C50.3444 29.1675 46.6812 33.2116 41.6571 36.6431L45.7296 39.287L49.8834 39.4442L48.9452 41.843C48.4213 43.1824 47.728 44.4474 46.8971 45.6468L48.8832 44.2326C52.9551 41.3335 57.2422 37.9512 60.6581 34.7439C62.9372 32.6044 64.7448 30.5129 65.9052 28.8237L54.4174 27.975L58.1681 25.0569C60.5254 23.2231 62.9356 21.4153 65.1976 19.5333C61.6765 16.964 58.4843 14.0451 56.4628 10.3678ZM77.619 10.5232C74.7184 16.6469 69.384 21.0413 64.1831 25.0315L71.3185 25.5583L70.5924 27.7803C69.5688 30.9102 66.732 34.0428 63.1404 37.4148C60.6867 39.7183 57.8564 42.0502 54.9807 44.2516L66.1823 45.0498L65.4413 47.2841C62.8787 55.0073 54.7927 60.2888 48.2072 64.5547C51.273 66.3952 54.497 68.0821 57.2572 69.6534C72.7919 73.953 90.8076 71.2462 102.93 65.9981C99.932 64.2724 97.5102 62.6748 95.4862 60.7423C92.8027 58.1799 90.9235 55.04 89.4903 50.6484L88.8045 48.5447L100.618 47.0346C97.9189 45.159 94.8965 42.8333 92.0103 40.2209C87.439 36.0829 83.2828 31.5389 82.0278 26.9551L81.381 24.5924L87.7156 24.7243C82.9025 20.1391 80.0908 15.2465 77.619 10.5232ZM21.3926 24.2589C18.936 28.181 16.1557 32.264 11.5469 36.1066L17.5894 36.0025L16.787 38.4463C14.9139 44.1572 9.74613 48.9978 2.7787 52.8813L14.8128 53.3359L13.8749 55.7338C11.363 62.1557 7.10996 67.8361 0 72.0879C16.7952 77.2432 35.5916 79.2998 52.6421 71.2718C49.7079 69.6601 46.5273 67.9242 43.4745 65.8894C39.3669 63.1518 35.6264 60.0098 33.9931 55.9029L33.0575 53.5498L44.0596 52.8955C41.3709 51.1535 38.737 49.3589 36.4315 47.5535C32.7388 44.6605 29.8258 42.0509 28.6983 39.1773L27.7799 36.8363L34.5403 36.4199C29.3984 33.1127 24.2391 29.4343 21.3926 24.2589ZM12.1818 39.7519L1.03974 39.9447C1.00155 39.9945 0.966998 40.0452 0.9279 40.0946C0.865161 45.0053 0.826063 47.7214 0.813788 49.7766C6.11977 46.7936 10.1026 43.3026 12.1818 39.7519ZM36.2031 42.5854C36.9988 43.3108 37.8211 44.0061 38.6683 44.6699C39.5002 45.3189 40.3445 45.9517 41.2006 46.5679C42.4372 45.3852 43.4929 44.1588 44.313 42.8916L36.2031 42.5854ZM45.6726 47.2523C45.2414 47.7651 44.7904 48.2608 44.3207 48.7382C46.4342 50.1531 48.5854 51.5103 50.7719 52.8082L54.7829 55.1903C57.3607 53.0382 59.5872 50.753 60.9693 48.343L45.6726 47.2523ZM109.276 49.6132L93.7315 51.6003C94.7922 54.2162 96.0154 56.1124 97.6595 57.7668L97.6118 55.5737C101.58 55.3461 105.501 54.8079 109.296 53.8915C109.281 52.2526 109.277 51.0543 109.276 49.6132ZM53.8202 55.9762L38.7279 56.8736C39.6151 58.0586 40.793 59.2326 42.1597 60.3722C43.6284 60.6685 45.1028 60.9354 46.5821 61.1727C49.0003 59.5461 51.5194 57.8114 53.8202 55.9762ZM3.86913 56.5793L3.80321 64.7165C6.24593 62.3474 8.05218 59.6973 9.44744 56.7904L3.86913 56.5793ZM97.9655 71.7794C94.7235 72.8251 91.2558 73.6976 87.6499 74.3432L88.9115 104.541H98.6811L97.9655 71.7794ZM56.6328 73.3791C56.0307 73.6979 55.423 74.006 54.8102 74.3034L54.5995 100.41H66.5749L66.0234 75.1665C62.8533 74.812 59.7072 74.2246 56.6328 73.3791ZM84.0334 74.9082C80.6043 75.3632 77.0816 75.605 73.5359 75.5922L73.4482 107.517H85.3959L84.0334 74.9082ZM3.70478 76.9976L3.49474 103.051H13.5571L14.006 79.2004C10.514 78.6375 7.07086 77.887 3.70478 76.9976ZM43.4213 78.43C40.7899 79.0857 38.1416 79.5575 35.4884 79.8657L36.3784 94.9884H43.8945L43.4213 78.43ZM17.634 79.7158L17.0639 110L33.5878 109.478L31.8639 80.1871C27.0971 80.4818 22.3312 80.2837 17.634 79.7158Z" fill="white"/>
</svg>
