<svg width="135" height="130" viewBox="0 0 135 130" fill="none" xmlns="http://www.w3.org/2000/svg">
<path d="M107.75 38.9474C110.8 38.9474 113.725 40.1673 115.882 42.3388C118.038 44.5102 119.25 47.4554 119.25 50.5263V89.6632C122.757 92.8474 125 97.4789 125 102.632C125 112.242 117.295 120 107.75 120C98.205 120 90.5 112.242 90.5 102.632C90.5 97.4789 92.7425 92.8474 96.25 89.6632V50.5263C96.25 44.1579 101.425 38.9474 107.75 38.9474ZM107.75 44.7368C104.588 44.7368 102 47.3421 102 50.5263V56.3158H113.5V50.5263C113.5 47.3421 110.912 44.7368 107.75 44.7368ZM67.5 25.5737L38.75 51.6263V96.8421H79.575L79 102.632L79.575 108.421H27.25V62.1053H10L67.5 10L92.8 32.9263C89.8675 35.4737 87.625 38.7737 86.1875 42.4789L67.5 25.5737Z" fill="white"/>
</svg>
