<svg width="43" height="29" viewBox="0 0 43 29" fill="none" xmlns="http://www.w3.org/2000/svg">
<path d="M23.936 0.77277C24.512 0.277965 25.2931 0 26.1075 0C26.922 0 27.7031 0.277965 28.2791 0.77277L42.1007 12.6499C42.6765 13.1449 43 13.8161 43 14.5159C43 15.2158 42.6765 15.887 42.1007 16.382L28.2791 28.2591C27.6998 28.7399 26.9239 29.0059 26.1186 28.9999C25.3133 28.9939 24.5429 28.7163 23.9734 28.227C23.4039 27.7376 23.0809 27.0756 23.0739 26.3836C23.0669 25.6915 23.3765 25.0248 23.936 24.527L32.2505 17.1553H3.07148C2.25687 17.1553 1.47563 16.8772 0.899614 16.3822C0.323601 15.8873 0 15.2159 0 14.5159C0 13.8159 0.323601 13.1446 0.899614 12.6496C1.47563 12.1546 2.25687 11.8766 3.07148 11.8766H32.2505L23.936 4.50483C23.3602 4.00988 23.0367 3.33866 23.0367 2.6388C23.0367 1.93894 23.3602 1.26772 23.936 0.77277Z" fill="#F8F8F8"/>
</svg>
