<svg width="81" height="110" viewBox="0 0 81 110" fill="none" xmlns="http://www.w3.org/2000/svg">
<path d="M40.5 0L35.4375 5.61361C35.4375 5.61361 26.7975 15.3038 18.09 27.8676C9.3825 40.4314 0 55.4678 0 69.9028C0 80.5372 4.26695 90.7361 11.8622 98.2558C19.4574 105.775 29.7587 110 40.5 110C51.2413 110 61.5426 105.775 69.1378 98.2558C76.7331 90.7361 81 80.5372 81 69.9028C81 55.4678 71.6175 40.4314 62.91 27.8676C54.2025 15.3038 45.5625 5.61361 45.5625 5.61361L40.5 0ZM40.5 20.9174C43.47 24.3925 46.17 27.2661 51.84 35.4192C60.0075 47.181 67.5 62.1507 67.5 69.9028C67.5 84.7388 55.485 96.6343 40.5 96.6343C25.515 96.6343 13.5 84.7388 13.5 69.9028C13.5 62.1507 20.9925 47.181 29.16 35.4192C34.83 27.2661 37.53 24.3925 40.5 20.9174Z" fill="white"/>
</svg>
